HIERARCHY
ROOT Hips
{
  OFFSET -32.5998 29.0326 120.673
  CHANNELS 6 Xposition Yposition Zposition Zrotation Xrotation Yrotation
  JOINT LeftUpLeg
  {
    OFFSET 8.64259 1.95398 -2.38835
    CHANNELS 3 Zrotation Xrotation Yrotation
    JOINT LeftLeg
    {
      OFFSET 43.7702 0 0
      CHANNELS 3 Zrotation Xrotation Yrotation
      JOINT LeftFoot
      {
        OFFSET 40.6238 0 0
        CHANNELS 3 Zrotation Xrotation Yrotation
        JOINT LeftToeBase
        {
          OFFSET 12.7242 0 0
          CHANNELS 3 Zrotation Xrotation Yrotation
          End Site
          {
            OFFSET 0 0 0
          }
        }
      }
    }
  }
  JOINT RightUpLeg
  {
    OFFSET -8.2249 1.95398 -2.59336
    CHANNELS 3 Zrotation Xrotation Yrotation
    JOINT RightLeg
    {
      OFFSET 43.5653 0 0
      CHANNELS 3 Zrotation Xrotation Yrotation
      JOINT RightFoot
      {
        OFFSET 40.6238 0 0
        CHANNELS 3 Zrotation Xrotation Yrotation
        JOINT RightToeBase
        {
          OFFSET 12.7242 0 0
          CHANNELS 3 Zrotation Xrotation Yrotation
          End Site
          {
            OFFSET 0 0 0
          }
        }
      }
    }
  }
  JOINT Spine
  {
    OFFSET 0.165834 0.87714 6.61349
    CHANNELS 3 Zrotation Xrotation Yrotation
    JOINT Spine1
    {
      OFFSET 7.38963 1.71661e-005 0
      CHANNELS 3 Zrotation Xrotation Yrotation
      JOINT Spine2
      {
        OFFSET 11.9445 1.14441e-005 0
        CHANNELS 3 Zrotation Xrotation Yrotation
        JOINT Spine3
        {
          OFFSET 14.7254 4.19617e-005 0
          CHANNELS 3 Zrotation Xrotation Yrotation
          JOINT Spine4
          {
            OFFSET 10.9679 0 0
            CHANNELS 3 Zrotation Xrotation Yrotation
            JOINT RightShoulder
            {
              OFFSET 2.46616 -1.6653 3.69651
              CHANNELS 3 Zrotation Xrotation Yrotation
              JOINT RightArm
              {
                OFFSET 13.0012 0 0
                CHANNELS 3 Zrotation Xrotation Yrotation
                JOINT RightForeArm
                {
                  OFFSET 28.7848 1.62311e-005 0
                  CHANNELS 3 Zrotation Xrotation Yrotation
                  JOINT RightHand
                  {
                    OFFSET 26.5688 1.62095e-005 0
                    CHANNELS 3 Zrotation Xrotation Yrotation
                    End Site
                    {
                      OFFSET 0 0 0
                    }
                  }
                }
              }
            }
            JOINT LeftShoulder
            {
              OFFSET 2.38034 -1.29275 -3.7523
              CHANNELS 3 Zrotation Xrotation Yrotation
              JOINT LeftArm
              {
                OFFSET 16.3182 6.07031e-005 0
                CHANNELS 3 Zrotation Xrotation Yrotation
                JOINT LeftForeArm
                {
                  OFFSET 27.0901 0 0
                  CHANNELS 3 Zrotation Xrotation Yrotation
                  JOINT LeftHand
                  {
                    OFFSET 24.5451 1.51738e-005 0
                    CHANNELS 3 Zrotation Xrotation Yrotation
                    End Site
                    {
                      OFFSET 0 0 0
                    }
                  }
                }
              }
            }
            JOINT Neck
            {
              OFFSET 5.0226 -0.0266342 0
              CHANNELS 3 Zrotation Xrotation Yrotation
              JOINT Head
              {
                OFFSET 6.69364 2.86102e-005 0
                CHANNELS 3 Zrotation Xrotation Yrotation
                End Site
                {
                  OFFSET 0 0 0
                }
              }
            }
          }
        }
      }
    }
  }
}
MOTION
Frames:	7
Frame Time:	0.0416667
256.942 95.3497 236.538 -90.0541 44.3617 -88.3792 -175.452 30.261 82.9333 -24.2563 10.2548 -3.63391 65.0576 1.85221 -0.595511 16.75 -3.58879 -2.81793 163.99 -29.1976 84.8443 -73.2875 -15.2534 -1.0042 60.559 0.943787 -1.92852 115.125 -25.8515 20.1305 2.90615 7.42806 -89.5828 12.0279 5.97476 0.180379 0.370709 5.97687 -0.0837212 -22.2661 5.64342 1.97347 -2.25344 5.64341 1.97346 92.8922 -13.8465 -107.421 35.8662 7.50478 0.596408 -77.2889 10.3523 -98.4169 7.10901 -0.730659 -15.4713 -82.2147 -39.6768 89.5046 19.4192 -7.10252 18.9477 40.9232 -30.9891 -140.215 32.2772 -16.606 -54.2806 12.6491 -11.5317 -8.46887 -10.0506 -9.11657 -0.922201 
241.293 93.1728 220.53 -92.4001 38.4613 -91.9342 -171.959 23.8576 77.0686 -44.4868 15.3987 -6.4848 78.917 12.1018 5.88294 0.992643 -13.943 1.58964 157.514 -10.1809 86.4658 -109.546 -8.37885 -2.92783 61.7081 -0.903803 -4.91731 64.2705 -14.8799 4.48805 1.26257 7.87546 -88.827 11.095 3.05775 2.03774 -0.573818 3.14444 1.90115 -23.1122 2.30421 2.86231 -3.09955 2.30418 2.8623 94.3803 -23.4589 -99.7101 46.2675 -9.81911 9.80945 -40.0258 2.11007 -90.33 -23.4637 -3.33522 14.3329 -89.8219 -52.2214 79.4206 -0.860703 0.184487 1.41665 35.3175 -10.9709 -117.481 23.6886 -13.957 -59.1625 13.2196 -9.58684 -14.6161 -8.36494 -5.75214 2.57102 
227.44 91.4762 207.254 -92.1052 32.8975 -96.0694 -176.335 6.95883 75.2638 -43.4297 15.4526 -3.37846 92.0867 22.0819 3.40155 8.89738 -10.2568 2.39827 166.72 20.5621 73.6953 -131.441 -14.7969 -4.48557 60.729 -1.03005 -6.69701 12.8712 4.72086 6.24448 -1.03021 7.73004 -88.1896 11.4078 -1.20509 3.72699 -0.268273 -1.04006 3.77631 -22.7734 -2.26877 3.19353 -2.76073 -2.26878 3.19351 95.8482 -23.8139 -96.436 59.9557 -20.5478 28.9614 -57.3319 -8.29961 -71.0977 -34.4316 -1.28925 -1.16607 -90.5137 -50.1449 77.979 -8.72279 -6.56289 -33.9911 25.4886 0.510834 -87.7855 19.2048 -5.70497 -43.9419 16.506 -3.9367 -14.5805 -14.3452 0.110686 2.17352 
212.232 92.5719 190.707 -90.9692 36.3621 -90.2254 -171.77 -14.7351 84.517 -24.0137 17.4277 -2.26883 87.3013 19.4693 1.66145 24.8908 -2.9892 2.65655 176.434 40.8288 90.1019 -120.55 -7.77934 -4.25822 72.2897 -7.07948 -8.10655 13.7115 3.66923 8.36193 -2.38056 7.49378 -89.2995 11.9418 -4.40218 1.88562 0.276905 -4.31491 2.0778 -22.319 -4.76502 0.472617 -2.30637 -4.765 0.472611 97.5473 -17.5817 -93.7341 68.3515 -31.0923 47.8884 -64.5822 -12.8975 -70.0192 -44.7149 0.611787 -6.71718 -88.1787 -35.4877 78.3337 -11.8255 -15.7618 -50.8019 145.108 16.679 -126.074 7.68362 -14.2214 -83.6959 19.4496 5.51233 -11.0588 -18.5083 8.19955 4.4783 
194.767 96.7455 173.497 -91.6226 37.1178 -82.8701 -166.191 -29.5655 98.6813 -8.28827 23.2012 1.20695 55.1763 -2.29102 1.39991 26.668 0.222034 -2.55506 178.196 45.1063 97.1907 -84.837 3.86842 -2.88609 74.621 -6.10287 -4.52645 14.3979 3.43914 8.26129 -3.8573 7.63178 -90.5668 11.6239 -7.93846 -0.305951 -0.0226778 -7.94419 0.0459811 -22.7369 -7.47739 -2.69108 -2.72426 -7.47738 -2.69109 98.7375 -6.9408 -93.358 66.2426 -29.8874 55.3718 -52.2945 -4.55864 -69.2752 -46.1146 6.86828 -21.4438 -84.0277 -17.1027 81.882 4.16254 -5.91524 -41.1313 131.69 25.3414 -125.674 -12.4122 7.45433 -78.152 25.8991 13.492 -11.0396 -28.5139 14.5825 11.3068 
177.639 97.467 156.543 -88.3511 37.8768 -81.9543 -162.881 -35.1294 103.124 -11.5929 11.3036 2.63145 56.8718 -0.640112 1.98221 14.2979 -8.62895 4.11646 -178.274 40.3423 96.3048 -40.7901 -10.0067 -1.40068 68.8395 -5.21981 -3.2693 18.5516 2.07864 7.52672 -4.1349 7.64582 -91.4017 11.526 -8.881 -1.88292 -0.115194 -8.95522 -1.48719 -22.8432 -7.90253 -4.47953 -2.8305 -7.90253 -4.47953 99.2042 -2.48695 -93.0931 58.1298 -21.9517 57.4001 -27.0805 2.25148 -60.0223 6.56711 -1.23109 -10.2055 -82.4946 -0.388196 80.8381 17.6124 16.845 -33.9545 85.5305 24.1013 -89.7082 -32.2944 12.9453 -50.8467 28.3553 14.664 -15.2822 -30.5475 15.7397 18.1324 
160.554 96.0357 139.657 -93.2949 39.0883 -82.4579 -161.895 -35.1342 101.398 -39.556 2.45606 0.603741 60.0141 -0.491623 4.17075 19.7878 -4.13256 0.856661 -178.626 26.4688 93.8704 -13.0473 -18.5672 -1.13207 62.2866 -2.68849 -1.9147 22.2823 1.68909 4.1119 -3.95396 7.6166 -90.9674 11.6292 -8.31838 -1.06481 -0.0150307 -8.35713 -0.695097 -22.7349 -7.61177 -3.52946 -2.72225 -7.61175 -3.52946 98.7048 -4.76333 -95.0431 56.0299 -12.9906 57.4973 -50.8722 -7.15385 -69.0925 -19.3154 -0.597806 -0.543492 -81.9849 -3.93136 82.1596 19.7746 22.7933 -36.6121 90.0607 11.2471 -84.7614 -46.6944 13.9321 -38.0356 22.5426 16.8541 -7.21139 -26.012 16.5587 11.3218 
